<?xml version="1.0" encoding="UTF-8"?>
<svg  height="30px" viewBox="0 0 54 96" version="1.1" xmlns="http://www.w3.org/2000/svg" xmlns:xlink="http://www.w3.org/1999/xlink">
    <title>noun_astrology_2324082</title>
    <g id="design_system" stroke="none" stroke-width="1" fill="none" fill-rule="evenodd">
        <g id="noun_astrology_2324082" fill="#000000" fill-rule="nonzero">
            <path d="M46.866,24.292 C46.548,24.292 46.237,24.324 45.931,24.37 L35.223,9.4 C35.625,8.576 35.858,7.654 35.858,6.676 C35.858,3.236 33.059,0.437 29.619,0.437 C26.179,0.437 23.381,3.236 23.381,6.676 C23.381,7.769 23.665,8.795 24.16,9.689 L13.625,24.418 C13.22,24.335 12.801,24.292 12.373,24.292 C8.934,24.292 6.135,27.09 6.135,30.53 C6.135,33.97 8.933,36.768 12.373,36.768 C13.441,36.768 14.447,36.497 15.328,36.022 L26.019,49.298 C24.426,50.43 23.381,52.285 23.381,54.384 C23.381,56.87 24.846,59.016 26.956,60.018 L10.037,83.806 C9.169,83.348 8.183,83.085 7.135,83.085 C3.695,83.085 0.897,85.884 0.897,89.324 C0.897,92.764 3.695,95.563 7.135,95.563 C10.575,95.563 13.374,92.764 13.374,89.324 C13.374,87.651 12.709,86.134 11.634,85.012 L29.003,60.592 C29.206,60.613 29.412,60.623 29.62,60.623 C33.06,60.623 35.859,57.824 35.859,54.384 C35.859,52.384 34.909,50.605 33.441,49.462 L44.167,36.145 C44.985,36.54 45.899,36.768 46.867,36.768 C50.306,36.768 53.104,33.97 53.104,30.53 C53.104,27.09 50.306,24.292 46.866,24.292 Z M7.135,93.563 C4.798,93.563 2.897,91.662 2.897,89.324 C2.897,86.986 4.798,85.085 7.135,85.085 C9.472,85.085 11.374,86.986 11.374,89.324 C11.374,91.662 9.472,93.563 7.135,93.563 Z M29.619,2.437 C31.957,2.437 33.858,4.339 33.858,6.676 C33.858,9.013 31.957,10.914 29.619,10.914 C27.282,10.914 25.381,9.013 25.381,6.676 C25.381,4.338 27.282,2.437 29.619,2.437 Z M8.135,30.53 C8.135,28.193 10.036,26.292 12.373,26.292 C14.71,26.292 16.612,28.193 16.612,30.53 C16.612,32.867 14.71,34.7680004 12.373,34.7680004 C10.036,34.769 8.135,32.867 8.135,30.53 Z M29.619,58.624 C27.282,58.624 25.381,56.723 25.381,54.385 C25.381,52.047 27.282,50.146 29.619,50.146 C31.957,50.146 33.858,52.047 33.858,54.385 C33.858,56.723 31.957,58.624 29.619,58.624 Z M31.653,48.493 C31.014,48.272 30.332,48.146 29.619,48.146 C29.01,48.146 28.421,48.238 27.864,48.402 L16.91,34.799 C17.962,33.682 18.612,32.182 18.612,30.53 C18.612,28.25 17.378,26.257 15.547,25.169 L25.459,11.311 C26.564,12.304 28.02,12.914 29.619,12.914 C31.322,12.914 32.866,12.227 33.993,11.117 L43.94,25.024 C41.971,26.074 40.627,28.148 40.627,30.53 C40.627,32.281 41.355,33.863 42.521,34.998 L31.653,48.493 Z M46.866,34.769 C44.528,34.769 42.627,32.868 42.627,30.531 C42.627,28.194 44.528,26.293 46.866,26.293 C49.203,26.293 51.103,28.194 51.103,30.531 C51.103,32.868 49.203,34.769 46.866,34.769 Z" id="Shape"></path>
        </g>
    </g>
</svg>